{"title":"Breaking.Bad.S01.2160p.WEBRip.DTS-HD.MA5.1.x264-TrollUHD","uid":15351063,"size":286366474318,"categoryP":"video","categoryS":"hd___tv_shows","magnet":"?xt=urn:btih:260ac3b389be23d137bb13724dc6a5b43637fe1e&amp;dn=Breaking.Bad.S01.2160p.WEBRip.DTS-HD.MA5.1.x264-TrollUHD&amp;tr=udp%3A%2F%2Ftracker.leechers-paradise.org%3A6969&amp;tr=udp%3A%2F%2Fzer0day.ch%3A1337&amp;tr=udp%3A%2F%2Fopen.demonii.com%3A1337&amp;tr=udp%3A%2F%2Ftracker.coppersurfer.tk%3A6969&amp;tr=udp%3A%2F%2Fexodus.desync.com%3A6969","seeders":3,"leechers":1,"uploader":"BreexeOX","files":7,"time":1468934449,"description":"General\r\nFormat : Matroska\r\nFormat version : Version 4 / Version 2\r\nFile size : 50.8 GiB\r\nDuration : 58mn 4s\r\nOverall bit rate : 125 Mbps\r\nMovie name : Breaking Bad: Season 1, Episode 1: \r\nEncoded date : UTC 2016-03-30 20:28:42\r\nWriting application : mkvmerge v9.0.1 ('Obstacles') 64bit\r\n\r\nVideo\r\nID : 1\r\nFormat : AVC\r\nFormat/Info : Advanced Video Codec\r\nFormat profile :   \r\nFormat settings, CABAC : Yes\r\nFormat settings, ReFrames : 5 frames\r\nCodec ID : V_MPEG4/ISO/AVC\r\nDuration : 57mn 59s\r\nBit rate : 105 Mbps\r\nWidth : 3 840 pixels\r\nHeight : 2 160 pixels\r\nDisplay aspect ratio : 16:9\r\nFrame rate mode : Constant\r\nFrame rate : 23.976 (24000/1001) fps\r\nColor space : YUV\r\nChroma subsampling : 4:2:0\r\nBit depth : 8 bits\r\nScan type : Progressive\r\nBits/(Pixel*Frame) : 0.530\r\nStream size : 42.7 GiB (84%)\r\nTitle : Breaking Bad: Season 1, Episode 1: \r\nWriting library : x264 core 148 r2638 7599210\r\nLanguage : English\r\nDefault : Yes\r\nForced : No\r\n\r\nAudio #1\r\nID : 2\r\nFormat : DTS\r\nFormat/Info : Digital Theater Systems\r\nFormat profile : MA / Core\r\nMode : 16\r\nFormat settings, Endianness : Big\r\nCodec ID : A_DTS\r\nDuration : 58mn 4s\r\nBit rate mode : Variable / Constant\r\nBit rate : 3 840 Kbps / 1 509 Kbps\r\nChannel(s) : 6 channels\r\nChannel positions : Front: L C R, Side: L R, LFE\r\nSampling rate : 48.0 KHz\r\nFrame rate : 93.750 fps (512 spf)\r\nBit depth : 24 bits\r\nCompression mode : Lossless / Lossy\r\nDelay relative to video : 5ms\r\nStream size : 1.58 GiB (3%)\r\nTitle : DTS HD 5.1 - Blu-ray\r\nLanguage : English\r\nDefault : Yes\r\nForced : No\r\n\r\nAudio #2\r\nID : 3\r\nFormat : DTS\r\nFormat/Info : Digital Theater Systems\r\nFormat profile : MA / Core\r\nMode : 16\r\nFormat settings, Endianness : Big\r\nCodec ID : A_DTS\r\nDuration : 58mn 4s\r\nBit rate mode : Variable / Constant\r\nBit rate : 3 840 Kbps / 1 509 Kbps\r\nChannel(s) : 6 channels\r\nChannel positions : Front: L C R, Side: L R, LFE\r\nSampling rate : 48.0 KHz\r\nFrame rate : 93.750 fps (512 spf)\r\nBit depth : 24 bits\r\nCompression mode : Lossless / Lossy\r\nDelay relative to video : 5ms\r\nStream size : 1.53 GiB (3%)\r\nTitle : DTS HD 5.1 - MVO, LostFilm\r\nLanguage : Russian\r\nDefault : No\r\nForced : No\r\n\r\nAudio #3\r\nID : 4\r\nFormat : DTS\r\nFormat/Info : Digital Theater Systems\r\nFormat profile : MA / Core\r\nMode : 16\r\nFormat settings, Endianness : Big\r\nCodec ID : A_DTS\r\nDuration : 58mn 4s\r\nBit rate mode : Variable / Constant\r\nBit rate : 3 840 Kbps / 1 509 Kbps\r\nChannel(s) : 6 channels\r\nChannel positions : Front: L C R, Side: L R, LFE\r\nSampling rate : 48.0 KHz\r\nFrame rate : 93.750 fps (512 spf)\r\nBit depth : 24 bits\r\nCompression mode : Lossless / Lossy\r\nDelay relative to video : 5ms\r\nStream size : 1.56 GiB (3%)\r\nTitle : DTS HD 5.1 - MVO, KvK\r\nLanguage : Russian\r\nDefault : No\r\nForced : No\r\n\r\nAudio #4\r\nID : 5\r\nFormat : DTS\r\nFormat/Info : Digital Theater Systems\r\nFormat profile : MA / Core\r\nMode : 16\r\nFormat settings, Endianness : Big\r\nCodec ID : A_DTS\r\nDuration : 58mn 4s\r\nBit rate mode : Variable / Constant\r\nBit rate : 3 840 Kbps / 1 509 Kbps\r\nChannel(s) : 6 channels\r\nChannel positions : Front: L C R, Side: L R, LFE\r\nSampling rate : 48.0 KHz\r\nFrame rate : 93.750 fps (512 spf)\r\nBit depth : 24 bits\r\nCompression mode : Lossless / Lossy\r\nDelay relative to video : 5ms\r\nStream size : 1.53 GiB (3%)\r\nTitle : DTS HD 5.1 - MVO, FoxCrime\r\nLanguage : Russian\r\nDefault : No\r\nForced : No\r\n\r\nAudio #5\r\nID : 6\r\nFormat : DTS\r\nFormat/Info : Digital Theater Systems\r\nFormat profile : MA / Core\r\nMode : 16\r\nFormat settings, Endianness : Big\r\nCodec ID : A_DTS\r\nDuration : 58mn 4s\r\nBit rate mode : Variable / Constant\r\nBit rate : 3 924 Kbps / 1 509 Kbps\r\nChannel(s) : 6 channels\r\nChannel positions : Front: L C R, Side: L R, LFE\r\nSampling rate : 48.0 KHz\r\nFrame rate : 93.750 fps (512 spf)\r\nBit depth : 24 bits\r\nCompression mode : Lossless / Lossy\r\nDelay relative to video : 5ms\r\nStream size : 1.59 GiB (3%)\r\nTitle : DTS HD 5.1 - AVO, Y.Serbin\r\nLanguage : Russian\r\nDefault : No\r\nForced : No\r\n\r\nAudio #6\r\nID : 7\r\nFormat : AC-3\r\nFormat/Info : Audio Coding 3\r\nMode extension : CM (complete main)\r\nFormat settings, Endianness : Big\r\nCodec ID : A_AC3\r\nDuration : 58mn 4s\r\nBit rate mode : Constant\r\nBit rate : 640 Kbps\r\nChannel(s) : 6 channels\r\nChannel positions : Front: L C R, Side: L R, LFE\r\nSampling rate : 48.0 KHz\r\nFrame rate : 31.250 fps (1536 spf)\r\nCompression mode : Lossy\r\nDelay relative to video : 16ms\r\nStream size : 266 MiB (1%)\r\nTitle : AC3 5.1 @ 640 kbps - AVO, Foxlight\r\nLanguage : Russian\r\nDefault : No\r\nForced : No\r\n\r\nAudio #7\r\nID : 8\r\nFormat : AC-3\r\nFormat/Info : Audio Coding 3\r\nMode extension : CM (complete main)\r\nFormat settings, Endianness : Big\r\nCodec ID : A_AC3\r\nDuration : 58mn 4s\r\nBit rate mode : Constant\r\nBit rate : 192 Kbps\r\nChannel(s) : 2 channels\r\nChannel positions : Front: L R\r\nSampling rate : 48.0 KHz\r\nFrame rate : 31.250 fps (1536 spf)\r\nCompression mode : Lossy\r\nDelay relative to video : 16ms\r\nStream size : 79.8 MiB (0%)\r\nTitle : AC3 2.0 @ 192 kbps - MVO, Inter\r\nLanguage : Ukrainian\r\nDefault : No\r\nForced : No","torrent":{"xt":"urn:btih:260ac3b389be23d137bb13724dc6a5b43637fe1e","amp;dn":"Breaking.Bad.S01.2160p.WEBRip.DTS-HD.MA5.1.x264-TrollUHD","amp;tr":["udp%3A%2F%2Ftracker.leechers-paradise.org%3A6969","udp%3A%2F%2Fzer0day.ch%3A1337","udp%3A%2F%2Fopen.demonii.com%3A1337","udp%3A%2F%2Ftracker.coppersurfer.tk%3A6969","udp%3A%2F%2Fexodus.desync.com%3A6969"],"infoHash":"260ac3b389be23d137bb13724dc6a5b43637fe1e","infoHashBuffer":{"type":"Buffer","data":[38,10,195,179,137,190,35,209,55,187,19,114,77,198,165,180,54,55,254,30]},"announce":[],"urlList":[]}}